<svg xmlns="http://www.w3.org/2000/svg" viewBox="0 0 100 100">
  <!-- Sunflower petals -->
  <g fill="#d39937">
    <path d="M50,10 L55,30 L75,30 L60,45 L65,65 L50,55 L35,65 L40,45 L25,30 L45,30 Z" />
    <path d="M50,10 L45,30 L25,30 L40,45 L35,65 L50,55 L65,65 L60,45 L75,30 L55,30 Z" transform="rotate(45, 50, 50)" />
    <path d="M50,10 L45,30 L25,30 L40,45 L35,65 L50,55 L65,65 L60,45 L75,30 L55,30 Z" transform="rotate(90, 50, 50)" />
    <path d="M50,10 L45,30 L25,30 L40,45 L35,65 L50,55 L65,65 L60,45 L75,30 L55,30 Z" transform="rotate(135, 50, 50)" />
    <path d="M50,10 L45,30 L25,30 L40,45 L35,65 L50,55 L65,65 L60,45 L75,30 L55,30 Z" transform="rotate(180, 50, 50)" />
    <path d="M50,10 L45,30 L25,30 L40,45 L35,65 L50,55 L65,65 L60,45 L75,30 L55,30 Z" transform="rotate(225, 50, 50)" />
    <path d="M50,10 L45,30 L25,30 L40,45 L35,65 L50,55 L65,65 L60,45 L75,30 L55,30 Z" transform="rotate(270, 50, 50)" />
    <path d="M50,10 L45,30 L25,30 L40,45 L35,65 L50,55 L65,65 L60,45 L75,30 L55,30 Z" transform="rotate(315, 50, 50)" />
  </g>
  <!-- Sunflower center -->
  <circle cx="50" cy="50" r="20" fill="#5b969c" />
  <circle cx="50" cy="50" r="15" fill="#f5ce8f" />
</svg> 